<svg version="1.2" xmlns="http://www.w3.org/2000/svg" viewBox="0 0 1080 1080" width="500" height="500"><style></style><path  d="m574.5 760.5v-69.1q38.1-31.2 74.6-62 36.5-30.9 66-61.2 29.5-30.3 46.7-59.2 17.1-29 17.2-56 0-15.5-5.9-28.8-5.9-13.3-17.9-21.3-12-7.9-31.4-7.9-19.3 0-32.8 9c-4.4 2.9-27.3 10.8-27.3 30.6h-89.3c1-33.5 8.3-32.5 22-54.4 13.7-21.9 31.9-35.7 54.7-46.2 22.7-10.5 48-15 75.7-15 31.9 0 58.6 5.1 80 17 21.3 11.8 37.5 25.3 48.4 45.1q16.4 29.7 16.4 66.2 0 28.3-9.9 54.8-9.8 26.6-27 51.4-17.2 24.8-39.2 47.6-22 22.8-46.1 43.7-24.1 20.9-47.5 39.3h236.9v76.4c0 0-364.2 0-364.3 0z"/><path fill-rule="evenodd" d="m929.1 760.5v-313.8l-288.3-2.5 47-124.8 281.9 1.5h55.3v439.6c0 0-95.9 0-95.9 0z"/><path fill-rule="evenodd" d="m384.7 759.1c-28.5 0-207.3-7.4-210.4-193.6v-246.2h125.9v115l-246.2 2.9v79.5l246.2 2.2v34.2q0 51.2 22.4 77.7 22.4 26.6 69.5 26.6 29.8 0 53-13.1 23.2-13.1 36.4-37.8 13.3-24.8 13.3-60.5v-226.8l208.6 0.2-46.9 80.7v360.4h-126.5v-70.3c-18.5 33.1-71.2 68.9-145.3 68.9z"/></svg>