<svg version="1.2" xmlns="http://www.w3.org/2000/svg" viewBox="0 0 1080 1080" width="500" height="500"><style></style><path fill-rule="evenodd" d="m235.9 512.3q8.1-13.2 23-21.2 14.9-8 35.9-8 21.9 0 37.1 8.2 15.1 8.2 23.1 23.9 7.9 15.7 7.9 38.4v90.8h-49v-86.7q0-18-8.7-27.9-8.7-9.9-27.1-9.9-11.4 0-20.5 4.8-9.1 4.9-14.3 13.8-5.1 9-5.1 21.8z"/><path fill-rule="evenodd" d="m141.5 643.2c-10.4 0-75.4-2.7-76.5-70.4v-89.5h45.8v85q0 18.6 8.1 28.3 8.1 9.6 25.3 9.6 10.8 0 19.2-4.7 8.4-4.8 13.3-13.8 4.8-9 4.8-22v-82.4l58.7 0.1v160.3h-45.9v-25.6c-6.8 12.1-25.9 25.1-52.8 25.1z"/><path fill-rule="evenodd" d="m497.5 616.9q-5.3 7.1-13 13.1-7.7 6.1-18.4 9.7-10.7 3.6-25.3 3.6-23.9 0-42.9-11.3-19-11.2-30-30.9-10.9-19.7-10.9-44.7 0-25.2 11.1-45 11-19.7 30.3-31 19.4-11.2 43.7-11.2 18.7 0 32.7 6.4 14.1 6.4 22.7 18.2v-58.8h49v208.6h-49c0 0 0-26.7 0-26.7zm-57.4-13.9q13.7 0 24-6 10.4-6 16.3-16.6 5.8-10.5 5.8-24.2 0-13.9-5.8-24.4-5.9-10.6-16.3-16.5-10.4-5.9-24.1-5.9-13.1 0-23.6 5.9-10.6 6-16.5 16.5-5.8 10.5-5.8 24.2 0 13.7 5.8 24.4 5.9 10.6 16.4 16.6 10.6 6 23.8 6z"/><path fill-rule="evenodd" d="m623.1 573.6q0.9 9.2 5.1 16.3 5.3 8.9 14.9 13.8 9.6 4.9 22.3 4.9 12.8 0 21-4.5 8.2-4.6 12.6-11.9h50.5q-5 14.4-16.8 25.9-11.8 11.6-28.8 18.4-17 6.8-38.1 6.8-27 0-47.7-9.9-20.7-10-32.3-27.7-11.6-17.7-11.6-41 0-23.8 11.4-42.2 11.5-18.4 32.1-28.9 20.7-10.5 48.2-10.5 26.5 0 46.5 9.9 19.9 9.9 31.1 27 11.1 17.1 11.1 39.1 0 3-0.1 6.7-0.1 3.8-0.7 7.8h-130.6q-0.2-2.1-0.2-4.4v-8.9q0-6.7 1.2-12.3h80.3q-0.9-14-11.7-22.3-10.7-8.3-26.7-8.3-12 0-21.8 4.7-9.9 4.7-15.6 14.2-3.1 5.1-4.5 11.7h-78.7v25.6c0 0 77.7 0 77.6 0z"/><path fill-rule="evenodd" d="m742.9 643.3v-160h42.3c0.8 0.6 47.1-0.5 120.9-0.5l37.3 34.6-14.1 11.8h-92.3q-10.1 0-18.7 2-8.6 2.1-14.8 6.9-6.3 4.8-9.6 13.1-3.4 8.2-3.4 20.6v71.5c0 0-47.6 0-47.6 0z"/><path fill-rule="evenodd" d="m979.9 643.6v-114.3l-58.1-0.9-17-45.6 89.9 0.7h20.2v160.1c0 0-35 0-35 0z"/><path  d="m850.7 643.6v-25.1q13.9-11.4 27.2-22.6 13.3-11.3 24-22.3 10.8-11.1 17-21.6 6.3-10.6 6.3-20.4 0-5.7-2.1-10.5-2.2-4.8-6.6-7.7-4.4-3-11.4-3-7 0-12 3.3c-1.6 1.1-9.9 4-9.9 11.2h-32.6c0.4-12.2 3.1-11.9 8.1-19.8 4.9-8 11.6-13 19.9-16.9 8.3-3.8 17.5-1.2 27.6-1.2 11.6 0 21.3-2.4 29.1 2 7.8 4.3 13.7 9.2 17.7 16.4q5.9 10.8 5.9 24.1 0 10.3-3.5 20-3.6 9.7-9.9 18.7-6.3 9-14.3 17.4-8 8.3-16.8 15.9-8.8 7.6-17.3 14.3h86.3v27.8c0 0-132.7 0-132.7 0z"/></svg>